<svg xmlns="http://www.w3.org/2000/svg" width="23" height="20"><path id="love" d="M1036.89 3562a5.854 5.854 0 00-4.82 2.62 9.549 9.549 0 00-.57.91 9.549 9.549 0 00-.57-.91 5.853 5.853 0 00-9.25-.66 6.77 6.77 0 00-1.68 4.56 8.269 8.269 0 002.35 5.51 52.123 52.123 0 005.89 5.42c.89.74 1.81 1.52 2.79 2.36l.03.02a.656.656 0 00.44.17.7.7 0 00.45-.17l.02-.02c.98-.84 1.91-1.62 2.8-2.36a51.927 51.927 0 005.88-5.42 8.284 8.284 0 002.36-5.51 6.819 6.819 0 00-1.68-4.56 5.906 5.906 0 00-4.44-1.96zm-3 16.44c-.77.64-1.56 1.3-2.39 2.02-.83-.72-1.62-1.38-2.39-2.02-4.68-3.92-7.77-6.51-7.77-9.92a5.468 5.468 0 011.35-3.68 4.5 4.5 0 017.14.55 7.794 7.794 0 011.03 2.01.675.675 0 001.28 0 8.145 8.145 0 011.03-2.01 4.505 4.505 0 017.15-.55 5.51 5.51 0 011.34 3.68c0 3.41-3.09 6-7.77 9.92z" transform="translate(-1020 -3562)" fill-rule="evenodd"/></svg>