<?xml version="1.0" encoding="utf-8"?><svg viewBox="0 0 512 512" xmlns="http://www.w3.org/2000/svg" xmlns:xlink="http://www.w3.org/1999/xlink"><style>:root>svg{display:none}:root>svg:target{display:block}</style><svg viewBox="0 0 10 5" id="angle-down" xmlns="http://www.w3.org/2000/svg"><path data-name="angle down" d="M1396.98 620a.728.728 0 0 1-.49-.179l-4.32-3.772a.567.567 0 0 1 0-.869.787.787 0 0 1 1 0l3.81 3.337 3.82-3.336a.771.771 0 0 1 .99 0 .553.553 0 0 1 0 .868l-4.31 3.772a.767.767 0 0 1-.5.179Zm0 0" transform="translate(-1392 -615)" style="fill:#8d8d8d;fill-rule:evenodd"/></svg><svg viewBox="0 0 320 512" id="angle-left-solid" xmlns="http://www.w3.org/2000/svg"><path d="M41.4 233.4c-12.5 12.5-12.5 32.8 0 45.3l160 160c12.5 12.5 32.8 12.5 45.3 0s12.5-32.8 0-45.3L109.3 256l137.3-137.4c12.5-12.5 12.5-32.8 0-45.3s-32.8-12.5-45.3 0l-160 160z"/></svg><svg viewBox="0 0 9 10" id="angle-right" xmlns="http://www.w3.org/2000/svg"><path d="m975.907 320.768-4.338-4.66a.279.279 0 0 0-.428 0l-.465.5a.331.331 0 0 0 0 .46l3.658 3.93-3.658 3.931a.322.322 0 0 0-.093.23.325.325 0 0 0 .093.23l.465.5a.279.279 0 0 0 .428 0l4.338-4.661A.326.326 0 0 0 976 321a.33.33 0 0 0-.093-.23Zm0 0-3.482.23a.325.325 0 0 0-.093-.23l-4.332-4.66a.279.279 0 0 0-.428 0l-.466.5a.331.331 0 0 0 0 .46l3.658 3.93-3.658 3.931a.331.331 0 0 0-.093.23.334.334 0 0 0 .093.23l.466.5a.279.279 0 0 0 .428 0l4.337-4.661a.322.322 0 0 0 .093-.23Zm0 0" transform="translate(-967 -316)" style="fill:#717171;fill-rule:evenodd"/></svg><svg viewBox="0 0 320 512" id="angle-right-solid" xmlns="http://www.w3.org/2000/svg"><path d="M278.6 233.4c12.5 12.5 12.5 32.8 0 45.3l-160 160c-12.5 12.5-32.8 12.5-45.3 0s-12.5-32.8 0-45.3L210.7 256 73.4 118.6c-12.5-12.5-12.5-32.8 0-45.3s32.8-12.5 45.3 0l160 160z"/></svg><svg viewBox="0 0 4.969 9.97" id="angle_left" xmlns="http://www.w3.org/2000/svg"><path d="M973.64 3013.16a.745.745 0 0 1 .178-.49l3.741-4.28a.548.548 0 0 1 .863 0 .762.762 0 0 1 0 .98l-3.311 3.79 3.31 3.79a.776.776 0 0 1 0 .99.56.56 0 0 1-.862 0l-3.741-4.28a.772.772 0 0 1-.178-.5Zm0 0" transform="translate(-973.625 -3008.19)" style="fill:#8d8d8d;fill-rule:evenodd"/></svg><svg viewBox="0 0 5 10" id="angle_right" xmlns="http://www.w3.org/2000/svg"><path d="M1347 3013.18a.816.816 0 0 0-.17-.5l-3.77-4.29a.556.556 0 0 0-.87 0 .771.771 0 0 0 0 .99l3.33 3.8-3.33 3.8a.771.771 0 0 0 0 .99.568.568 0 0 0 .87 0l3.77-4.3a.715.715 0 0 0 .17-.49Zm0 0" transform="translate(-1342 -3008.19)" style="fill:#8d8d8d;fill-rule:evenodd"/></svg><svg viewBox="0 0 10 8" id="arrow" xmlns="http://www.w3.org/2000/svg"><path d="m910.836 6130.62-3.609-3.47a.574.574 0 0 0-.774 0l-.327.32a.511.511 0 0 0-.16.37.534.534 0 0 0 .16.38l2.105 2.03h-6.689a.518.518 0 0 0-.54.51v.45a.543.543 0 0 0 .54.54h6.713l-2.129 2.04a.508.508 0 0 0 0 .74l.327.32a.6.6 0 0 0 .387.15.556.556 0 0 0 .387-.16l3.609-3.47a.507.507 0 0 0 .164-.37.53.53 0 0 0-.16-.38" transform="translate(-901 -6127)" style="fill:#8d8d8d;fill-rule:evenodd"/></svg><svg viewBox="0 0 10 8" id="arrow-accent" xmlns="http://www.w3.org/2000/svg"><path d="m910.836 6130.62-3.609-3.47a.574.574 0 0 0-.774 0l-.327.32a.511.511 0 0 0-.16.37.534.534 0 0 0 .16.38l2.105 2.03h-6.689a.518.518 0 0 0-.54.51v.45a.543.543 0 0 0 .54.54h6.713l-2.129 2.04a.508.508 0 0 0 0 .74l.327.32a.6.6 0 0 0 .387.15.556.556 0 0 0 .387-.16l3.609-3.47a.507.507 0 0 0 .164-.37.53.53 0 0 0-.16-.38" transform="translate(-901 -6127)" style="fill:#fe3e57;fill-rule:evenodd"/></svg><svg viewBox="0 0 16 20" id="bag" xmlns="http://www.w3.org/2000/svg"><path d="m968 3579.29-1.145-12.89a.553.553 0 0 0-.547-.51h-2.354a3.948 3.948 0 0 0-7.9 0H953.7a.55.55 0 0 0-.547.51l-1.145 12.89v.05a2.854 2.854 0 0 0 3 2.67h10a2.854 2.854 0 0 0 3-2.67.257.257 0 0 0 0-.05Zm-7.994-16.18a2.844 2.844 0 0 1 2.844 2.78h-5.688a2.844 2.844 0 0 1 2.844-2.78Zm5 17.79h-10a1.763 1.763 0 0 1-1.9-1.53l1.1-12.37h1.847v1.68a.552.552 0 0 0 1.1 0V3567h5.692v1.68a.552.552 0 0 0 1.1 0V3567h1.855l1.1 12.37a1.765 1.765 0 0 1-1.9 1.53Zm0 0" transform="translate(-952 -3562)" style="fill-rule:evenodd"/></svg><svg viewBox="0 0 16 16" id="calendar" xmlns="http://www.w3.org/2000/svg"><path d="M1317.12 1520.25h-.75V1519h-1.25v1.25h-8.24V1519h-1.26v1.25h-.75a1.874 1.874 0 0 0-1.87 1.87v11a1.876 1.876 0 0 0 1.87 1.88h12.25a1.878 1.878 0 0 0 1.88-1.88v-11a1.876 1.876 0 0 0-1.88-1.87Zm-12.25 1.25h.75v1.25h1.26v-1.25h8.24v1.25h1.25v-1.25h.75a.625.625 0 0 1 .63.62v1.5h-13.5v-1.5a.623.623 0 0 1 .62-.62Zm12.25 12.25h-12.25a.625.625 0 0 1-.62-.63v-8.25h13.5v8.25a.627.627 0 0 1-.63.63Zm-11.75-7.56h1.25v1.25h-1.25v-1.25Zm2.5 0h1.25v1.25h-1.25v-1.25Zm2.5 0h1.25v1.25h-1.25v-1.25Zm2.5 0h1.25v1.25h-1.25v-1.25Zm2.5 0h1.25v1.25h-1.25v-1.25Zm-10 2.5h1.25v1.25h-1.25v-1.25Zm2.5 0h1.25v1.25h-1.25v-1.25Zm2.5 0h1.25v1.25h-1.25v-1.25Zm2.5 0h1.25v1.25h-1.25v-1.25Zm-7.5 2.5h1.25v1.25h-1.25v-1.25Zm2.5 0h1.25v1.25h-1.25v-1.25Zm2.5 0h1.25v1.25h-1.25v-1.25Zm2.5 0h1.25v1.25h-1.25v-1.25Zm2.5-2.5h1.25v1.25h-1.25v-1.25Z" transform="translate(-1303 -1519)" style="fill:#fe3e57;fill-rule:evenodd"/></svg><svg viewBox="0 0 22 20" id="cart" xmlns="http://www.w3.org/2000/svg"><path d="M1527.44 65a2.724 2.724 0 1 1 2.74-2.724 2.738 2.738 0 0 1-2.74 2.724Zm0-3.814a1.09 1.09 0 1 0 1.09 1.09 1.094 1.094 0 0 0-1.09-1.093Zm1.75-2.806h-12.81a.823.823 0 0 1-.8-.628l-2.68-11.115h-2.06a.817.817 0 1 1 0-1.634h2.71a.824.824 0 0 1 .8.627l.74 3.078h16.1a.818.818 0 0 1 .8 1.014l-2 8.038a.822.822 0 0 1-.8.617Zm-12.16-1.635h11.52l1.59-6.4h-14.65Zm.45 8.255a2.724 2.724 0 1 1 2.74-2.724 2.738 2.738 0 0 1-2.74 2.724Zm0-3.814a1.09 1.09 0 1 0 1.09 1.09 1.094 1.094 0 0 0-1.09-1.093Z" transform="translate(-1510 -45)" style="fill:#29282d;fill-rule:evenodd"/></svg><svg viewBox="0 0 12 12" id="check-on" xmlns="http://www.w3.org/2000/svg"><path d="M1.079 4.999 5 9l5.837-7"/></svg><svg viewBox="0 0 20 20" id="check-size" xmlns="http://www.w3.org/2000/svg"><path d="M422.071 1657.48a10 10 0 1 0 2.929 7.07 9.931 9.931 0 0 0-2.929-7.07Zm-7.071 15.9a8.83 8.83 0 1 1 8.828-8.83 8.838 8.838 0 0 1-8.828 8.83Zm3.949-12.04-5.174 5.18-2.724-2.73a.587.587 0 1 0-.829.83l3.138 3.14a.59.59 0 0 0 .829 0l5.588-5.59a.586.586 0 0 0-.828-.83Z" transform="translate(-405 -1654.56)" style="fill:#fe3e57;fill-rule:evenodd"/></svg><svg viewBox="0 0 16 16" id="comment" xmlns="http://www.w3.org/2000/svg"><path d="M607.375 1097h-14.75a.624.624 0 0 0-.625.62V1110a.624.624 0 0 0 .625.62h5.53l1.317 2.09a.626.626 0 0 0 1.056 0l1.316-2.09h5.531a.624.624 0 0 0 .625-.62v-12.38a.624.624 0 0 0-.625-.62Zm-.625 12.37h-5.25a.616.616 0 0 0-.529.3l-.971 1.53-.972-1.53a.613.613 0 0 0-.528-.3h-5.25v-11.12h13.5v11.12Zm-7.531-5.56a.781.781 0 1 1 .781.78.781.781 0 0 1-.781-.78Zm-3.125 0a.781.781 0 1 1 .781.78.781.781 0 0 1-.781-.78Zm6.25 0a.781.781 0 1 1 .781.78.781.781 0 0 1-.781-.78Z" transform="translate(-592 -1097)" style="fill:#fe3e57;fill-rule:evenodd"/></svg><svg viewBox="0 0 18 20" id="email-icon" xmlns="http://www.w3.org/2000/svg"><path d="M396 1744.94v10.31a1.7 1.7 0 0 0 .18.75l5.571-5.44c-2.134-2.09-3.531-3.45-5.751-5.62Zm12.248 5.62 5.57 5.44a1.686 1.686 0 0 0 .181-.75v-10.31c-2.13 2.08-3.593 3.51-5.751 5.62Zm-3.248-7.62a.585.585 0 1 0 .591.54.591.591 0 0 0-.591-.54Zm2.151 8.2h-4.3l-5.819 5.69a1.805 1.805 0 0 0 .771.17h14.4a1.805 1.805 0 0 0 .771-.17Zm-8.751-5.52v-3.51l-1.8 1.76Zm15-1.75-1.8-1.76v3.51Zm-6.248 6.1 3.248-3.17v-9.05a.756.756 0 0 0-.769-.75h-9.374a.644.644 0 0 0-.656.64v9.16l3.248 3.17h4.3Zm-6.351-6.45a4.2 4.2 0 0 1 8.4 0 1.8 1.8 0 0 1-3 1.3 1.744 1.744 0 1 1 .6-1.3.6.6 0 0 0 1.2 0 3 3 0 0 0-6 0 2.894 2.894 0 0 0 1.386 2.47 3.177 3.177 0 0 0 3.028.15.586.586 0 1 1 .5 1.06 4.362 4.362 0 0 1-4.176-.22 4.067 4.067 0 0 1-1.939-3.46Z" transform="translate(-396 -1737)" style="fill:#fe3e57;fill-rule:evenodd"/></svg><svg viewBox="0 0 12 18" id="facebook" xmlns="http://www.w3.org/2000/svg"><path d="M10.469 10.125 11 6.867H7.668V4.754c0-.89.465-1.762 1.957-1.762h1.516V.22S9.766 0 8.449 0C5.707 0 3.91 1.559 3.91 4.383v2.484H.86v3.258h3.05V18h3.758v-7.875Zm0 0"/></svg><svg viewBox="0 0 512 512" id="filter-solid" xmlns="http://www.w3.org/2000/svg"><path d="M3.9 54.9C10.5 40.9 24.5 32 40 32h432c15.5 0 29.5 8.9 36.1 22.9s4.6 30.5-5.2 42.5L320 320.9V448c0 12.1-6.8 23.2-17.7 28.6s-23.8 4.3-33.5-3l-64-48c-8.1-6-12.8-15.5-12.8-25.6v-79.1L9 97.3C-.7 85.4-2.8 68.8 3.9 54.9z"/></svg><svg viewBox="0 0 19 20" id="glass" xmlns="http://www.w3.org/2000/svg"><path d="m898.709 3580.22-4.681-4.95a8.153 8.153 0 0 0 1.863-5.19 7.944 7.944 0 1 0-7.944 8.07 7.746 7.746 0 0 0 4.551-1.46l4.718 4.99a1.032 1.032 0 0 0 1.464.03 1.067 1.067 0 0 0 .029-1.49Zm-10.762-16.11a5.971 5.971 0 1 1-5.869 5.97 5.923 5.923 0 0 1 5.869-5.97Zm0 0" transform="translate(-880 -3562)" style="fill-rule:evenodd"/></svg><svg viewBox="0 0 15 16" id="google+" xmlns="http://www.w3.org/2000/svg"><path d="M15 8.18c0 4.422-2.977 7.57-7.379 7.57C3.406 15.75 0 12.29 0 8S3.406.25 7.621.25c2.055 0 3.781.766 5.113 2.027L10.66 4.305C7.945 1.645 2.898 3.645 2.898 8c0 2.703 2.125 4.895 4.723 4.895 3.02 0 4.152-2.2 4.328-3.34H7.621V6.887h7.258c.07.398.121.777.121 1.293Zm0 0"/></svg><svg viewBox="0 0 15 15" id="grid" xmlns="http://www.w3.org/2000/svg"><path d="M855 613.75h3.75V610H855v3.75Zm5.625 11.25h3.75v-3.75h-3.75V625ZM855 625h3.75v-3.75H855V625Zm0-5.625h3.75v-3.75H855v3.75Zm5.625 0h3.75v-3.75h-3.75v3.75ZM866.25 610v3.75H870V610h-3.75Zm-5.625 3.75h3.75V610h-3.75v3.75Zm5.625 5.625H870v-3.75h-3.75v3.75Zm0 5.625H870v-3.75h-3.75V625Z" transform="translate(-855 -610)" style="fill-rule:evenodd"/></svg><svg viewBox="0 0 20 20" id="heart" xmlns="http://www.w3.org/2000/svg"><path d="M1484.78 49.589a6.683 6.683 0 0 0-4.17-4.371c-1.71-.595-3.75 0-5.58 1.611-1.83-1.569-3.88-2.122-5.58-1.569a6.884 6.884 0 0 0-4.17 4.371c-.47 1.57-.51 4.117 1.95 7.215 1.11 1.4 2.82 3.4 4.22 4.965 2.68 3.014 3.11 3.183 3.49 3.183h.17c.39 0 .77-.168 3.45-3.224a224.86 224.86 0 0 0 4.22-4.966c2.47-3.098 2.47-5.645 2-7.215Zm-3.28 6.2c-1.96 2.462-5.32 6.324-6.47 7.385-1.15-1.061-4.52-4.924-6.48-7.385-1.61-1.994-2.21-3.947-1.7-5.687a4.986 4.986 0 0 1 3.11-3.225c1.23-.467 2.9.169 4.43 1.655a.84.84 0 0 0 1.06.126.447.447 0 0 0 .22-.17c1.53-1.443 3.19-2.079 4.42-1.655a5.168 5.168 0 0 1 3.11 3.268c.51 1.699-.08 3.689-1.7 5.683Z" transform="translate(-1465.03 -45)" style="fill:#29282d;fill-rule:evenodd"/></svg><svg viewBox="0 0 16 16" id="home-icon" xmlns="http://www.w3.org/2000/svg"><path d="m893 310-7.771 6.858a.665.665 0 0 0-.064.925.639.639 0 0 0 .91.065l.286-.253v6.44a1.95 1.95 0 0 0 1.933 1.965h3.606v-5.274a1.138 1.138 0 0 1 1.128-1.146 1.138 1.138 0 0 1 1.128 1.146V326h3.544a1.95 1.95 0 0 0 1.934-1.965v-6.44l.286.253a.637.637 0 0 0 .909-.065.663.663 0 0 0-.064-.925Zm5.35 14.035a.65.65 0 0 1-.645.655h-2.256v-3.964a2.437 2.437 0 0 0-2.417-2.456 2.437 2.437 0 0 0-2.417 2.456v3.964h-2.32a.65.65 0 0 1-.645-.655v-7.578l5.35-4.722 5.35 4.722v7.578Z" transform="translate(-885 -310)" style="fill:#717171;fill-rule:evenodd"/></svg><svg viewBox="0 0 14 16" id="linkedin" xmlns="http://www.w3.org/2000/svg"><path d="M3.133 14H.23V4.652h2.903ZM1.68 3.379c-.926 0-1.68-.77-1.68-1.7a1.682 1.682 0 0 1 3.363 0c0 .93-.754 1.7-1.683 1.7ZM13.996 14h-2.894V9.45c0-1.083-.024-2.473-1.512-2.473-1.508 0-1.738 1.175-1.738 2.394V14H4.953V4.652h2.781V5.93h.043c.387-.735 1.332-1.512 2.746-1.512 2.938 0 3.477 1.934 3.477 4.45V14Zm0 0"/></svg><svg viewBox="0 0 20 15" id="list" xmlns="http://www.w3.org/2000/svg"><path d="M885.007 610h4.422v4.172h-4.422V610Zm5.828 0h14.159v4.172h-14.159V610Zm-5.828 5.413h4.422v4.172h-4.422v-4.172Zm5.828 0h14.159v4.172h-14.159v-4.172Zm-5.828 5.414h4.422V625h-4.422v-4.171Zm5.828 0h14.159V625h-14.159v-4.171Z" transform="translate(-885 -610)" style="fill-rule:evenodd"/></svg><svg viewBox="0 0 14 20" id="location-icon" xmlns="http://www.w3.org/2000/svg"><path data-name="Location icon" d="M405 1637a7.131 7.131 0 0 0-7 7.24c0 4.96 6.262 12.23 6.529 12.53a.613.613 0 0 0 .937 0c.267-.3 6.529-7.57 6.529-12.53A7.131 7.131 0 0 0 405 1637Zm0 10.88a3.642 3.642 0 1 1 3.521-3.64 3.584 3.584 0 0 1-3.521 3.64Z" transform="translate(-398 -1637)" style="fill:#fe3e57;fill-rule:evenodd"/></svg><svg viewBox="0 0 23 20" id="love" xmlns="http://www.w3.org/2000/svg"><path d="M1036.89 3562a5.854 5.854 0 0 0-4.82 2.62 9.549 9.549 0 0 0-.57.91 9.549 9.549 0 0 0-.57-.91 5.853 5.853 0 0 0-9.25-.66 6.77 6.77 0 0 0-1.68 4.56 8.269 8.269 0 0 0 2.35 5.51 52.123 52.123 0 0 0 5.89 5.42c.89.74 1.81 1.52 2.79 2.36l.03.02a.656.656 0 0 0 .44.17.7.7 0 0 0 .45-.17l.02-.02c.98-.84 1.91-1.62 2.8-2.36a51.927 51.927 0 0 0 5.88-5.42 8.284 8.284 0 0 0 2.36-5.51 6.819 6.819 0 0 0-1.68-4.56 5.906 5.906 0 0 0-4.44-1.96Zm-3 16.44c-.77.64-1.56 1.3-2.39 2.02-.83-.72-1.62-1.38-2.39-2.02-4.68-3.92-7.77-6.51-7.77-9.92a5.468 5.468 0 0 1 1.35-3.68 4.5 4.5 0 0 1 7.14.55 7.794 7.794 0 0 1 1.03 2.01.675.675 0 0 0 1.28 0 8.145 8.145 0 0 1 1.03-2.01 4.505 4.505 0 0 1 7.15-.55 5.51 5.51 0 0 1 1.34 3.68c0 3.41-3.09 6-7.77 9.92Z" transform="translate(-1020 -3562)" style="fill-rule:evenodd"/></svg><svg viewBox="0 0 20 19.97" id="phone-icon" xmlns="http://www.w3.org/2000/svg"><path d="m414.477 1551.76-2.485-2.49a1.807 1.807 0 0 0-2.485 0l-.414.42 4.969 4.97.415-.41a1.763 1.763 0 0 0 0-2.49Zm-7.982-1.35-4.912-4.92a1.323 1.323 0 0 1-.09-1.75l-4.958-4.97a6.341 6.341 0 0 0 .3 8.6l7.774 7.78a6.291 6.291 0 0 0 8.587.31l-4.958-4.96a1.334 1.334 0 0 1-1.738-.09Zm-3.782-7.94a1.764 1.764 0 0 0 0-2.49l-2.485-2.48a1.787 1.787 0 0 0-2.485 0l-.414.41 4.969 4.98Z" transform="translate(-395 -1537.03)" style="fill:#fe3e57;fill-rule:evenodd"/></svg><svg viewBox="0 0 12 16" id="pinterest" xmlns="http://www.w3.org/2000/svg"><path d="M6.375.203C3.168.203 0 2.34 0 5.801 0 8 1.238 9.25 1.988 9.25c.309 0 .489-.863.489-1.105 0-.293-.743-.91-.743-2.122 0-2.511 1.914-4.293 4.387-4.293 2.129 0 3.703 1.211 3.703 3.434 0 1.656-.664 4.77-2.82 4.77-.777 0-1.445-.563-1.445-1.368 0-1.183.824-2.324.824-3.543 0-2.07-2.934-1.695-2.934.805 0 .524.067 1.106.301 1.586-.43 1.856-1.313 4.621-1.313 6.531 0 .594.086 1.172.141 1.766.106.117.055.105.215.047 1.574-2.156 1.52-2.578 2.23-5.403.387.73 1.38 1.125 2.168 1.125C10.508 11.48 12 8.246 12 5.332 12 2.227 9.32.203 6.375.203Zm0 0"/></svg><svg data-name="play btn" viewBox="0 0 130 130" id="playbtn" xmlns="http://www.w3.org/2000/svg"><circle data-name="Ellipse 7 copy 2" cx="65" cy="65" r="65" style="opacity:.2;fill:#fe3e57"/><circle data-name="Ellipse 7 copy" cx="65" cy="65" r="55" style="opacity:.6;fill:#fe3e57"/><circle cx="65" cy="65" r="45" style="fill:#fe3e57"/><path d="m649.816 2630.14-11.824-7.6a2.934 2.934 0 0 0-1.554-.54 1.507 1.507 0 0 0-1.431 1.78v16.44a1.507 1.507 0 0 0 1.429 1.78 3 3 0 0 0 1.546-.54l11.83-7.6a2.056 2.056 0 0 0 0-3.72" transform="translate(-578 -2567)" style="fill:#fff;fill-rule:evenodd"/></svg><svg viewBox="0 0 15 13" id="reply" xmlns="http://www.w3.org/2000/svg"><path d="M480.835 1526.67v-3.47l-5.835 6.07 5.834 6.07v-3.56c4.167 0 7.084 1.39 9.167 4.42-.832-4.33-3.333-8.66-9.166-9.53Z" transform="translate(-475 -1523.19)" style="fill:#8d8d8d;fill-rule:evenodd"/></svg><svg viewBox="0 0 20.03 20" id="search" xmlns="http://www.w3.org/2000/svg"><path d="m1439.89 63.7-5.81-5.81a7.944 7.944 0 1 0-1.18 1.178l5.81 5.81a.417.417 0 0 0 .59 0l.59-.589a.421.421 0 0 0 0-.589Zm-11.96-4.533a6.25 6.25 0 1 1 6.25-6.25 6.254 6.254 0 0 1-6.25 6.246Z" transform="translate(-1420 -45)" style="fill:#29282d;fill-rule:evenodd"/></svg><svg viewBox="0 0 15 15" id="search-white" xmlns="http://www.w3.org/2000/svg"><path d="M694.008 701.681a6.118 6.118 0 1 0-1.326 1.326l3.992 3.993 1.326-1.327-3.992-3.992Zm-4.914.631a4.219 4.219 0 1 1 4.218-4.219 4.224 4.224 0 0 1-4.218 4.219Zm0 0" transform="translate(-683 -692)" style="fill:#fff;fill-rule:evenodd"/></svg><svg viewBox="0 0 18 16" id="star-solid" xmlns="http://www.w3.org/2000/svg"><path d="M9.902.563A.996.996 0 0 0 9.004 0c-.387 0-.73.219-.902.563L6.094 4.694l-4.489.664a.99.99 0 0 0-.8.68.996.996 0 0 0 .246 1.02l3.254 3.222-.766 4.555a1 1 0 0 0 1.457 1.047l4.012-2.14 4.008 2.14a.991.991 0 0 0 1.054-.07 1 1 0 0 0 .407-.977l-.774-4.555 3.258-3.222c.266-.266.363-.66.246-1.02a1.007 1.007 0 0 0-.805-.68l-4.488-.664Zm0 0"/></svg><svg viewBox="0 0 20 20" id="time" xmlns="http://www.w3.org/2000/svg"><path d="M965.9 6011.26a.832.832 0 0 0-.387 1.11 8.318 8.318 0 1 1-2.335-2.91.831.831 0 1 0 1.037-1.3A10 10 0 1 0 968 6016a9.9 9.9 0 0 0-.992-4.35.83.83 0 0 0-1.113-.39Zm-7.9-1.93a.839.839 0 0 0-.833.84v5.83a.831.831 0 0 0 .833.83h4.167a.83.83 0 1 0 0-1.66h-3.334v-5a.839.839 0 0 0-.833-.84Zm0 0" transform="translate(-948 -6006)" style="fill:#8d8d8d;fill-rule:evenodd"/></svg><svg viewBox="0 0 16 14" id="twitter" xmlns="http://www.w3.org/2000/svg"><path d="M14.355 4.148c.012.125.012.25.012.375 0 3.793-3.3 8.16-9.332 8.16-1.86 0-3.582-.468-5.035-1.285.266.028.52.036.793.036 1.531 0 2.941-.454 4.07-1.227-1.441-.027-2.648-.852-3.066-1.988.203.023.406.043.621.043.293 0 .586-.035.86-.098-1.5-.266-2.63-1.422-2.63-2.816v-.035c.438.214.946.347 1.485.363C1.25 5.16.672 4.28.672 3.286c0-.532.16-1.02.445-1.446 1.613 1.738 4.04 2.879 6.762 3a2.822 2.822 0 0 1-.082-.656c0-1.582 1.46-2.868 3.277-2.868.946 0 1.797.344 2.399.907a7.107 7.107 0 0 0 2.082-.696c-.246.668-.762 1.227-1.442 1.582A7.313 7.313 0 0 0 16 2.664a6.596 6.596 0 0 1-1.645 1.484Zm0 0"/></svg><svg viewBox="0 0 20 20" id="user" xmlns="http://www.w3.org/2000/svg"><path d="M1392.07 57.928a9.923 9.923 0 0 0-3.8-2.383 5.78 5.78 0 1 0-6.54 0A10.018 10.018 0 0 0 1375 65h1.56a8.44 8.44 0 0 1 16.88 0h1.56a9.931 9.931 0 0 0-2.93-7.072Zm-11.29-7.148A4.22 4.22 0 1 1 1385 55a4.222 4.222 0 0 1-4.22-4.22Z" transform="translate(-1375 -45)" style="fill:#29282d;fill-rule:evenodd"/></svg><svg viewBox="0 0 16 16" id="user-blog" xmlns="http://www.w3.org/2000/svg"><path d="M751.657 1107.34a7.972 7.972 0 0 0-3.04-1.9 4.625 4.625 0 1 0-5.234 0A7.989 7.989 0 0 0 738 1113h1.25a6.75 6.75 0 0 1 13.5 0H754a7.948 7.948 0 0 0-2.343-5.66Zm-9.032-5.72A3.375 3.375 0 1 1 746 1105a3.375 3.375 0 0 1-3.375-3.38Z" transform="translate(-738 -1097)" style="fill:#fe3e57;fill-rule:evenodd"/></svg><svg viewBox="0 0 20 20" id="user-gray" xmlns="http://www.w3.org/2000/svg"><path d="M832.071 6018.93a9.992 9.992 0 0 0-3.8-2.39 5.781 5.781 0 1 0-6.542 0A10.038 10.038 0 0 0 815 6026h1.562a8.438 8.438 0 1 1 16.876 0H835a9.935 9.935 0 0 0-2.929-7.07Zm-11.29-7.15A4.219 4.219 0 1 1 825 6016a4.223 4.223 0 0 1-4.219-4.22Z" transform="translate(-815 -6006)" style="fill:#8d8d8d;fill-rule:evenodd"/></svg></svg>